# xmcd CD database file
# Copyright (C) 1993-1998 Ti Kan
# 
# Track frame offsets:
#     150
#     14453
#     30723
#     43330
#     89715
#     102860
#     115540
#     137282
#     152182
#     214947
# 
# Disc length: 3732 seconds
# 
# Revision: 1
# Processed by: cddbd v1.4b41PL1 Copyright (c) Steve Scherf et al.
# Submitted via: DiscPlay 4.0.4
# 
DISCID=830e920a
DTITLE=Soundtracks - Akira Soundtrack
DYEAR=1900
DGENRE=
TTITLE0=Kaneda
TTITLE1=Battle Against Clown
TTITLE2=Winds Over Neo Tokyo
TTITLE3=Tetsuo
TTITLE4=Dolls Polyphony
TTITLE5=Shohmyoh
TTITLE6=Mutation
TTITLE7=Exodus From The Underground Fortress
TTITLE8=Ilusion
TTITLE9=Requiem
EXTD=
EXTT0=
EXTT1=
EXTT2=
EXTT3=
EXTT4=
EXTT5=
EXTT6=
EXTT7=
EXTT8=
EXTT9=
PLAYORDER=
